http://192.168.1.200:8096/videos/f9528855-49b4-5611-d9bf-57dcc5d32afc/hls1/main/485.ts?DeviceId=TW96aWxsYS81LjAgKFdpbmRvd3MgTlQgMTAuMDsgV2luNjQ7IHg2NDsgcnY6NzAuMCkgR2Vja28vMjAxMDAxMDEgRmlyZWZveC83MC4wfDE1NzUzMzEyOTQ2MDM1&MediaSourceId=f952885549b45611d9bf57dcc5d32afc&VideoCodec=h264&AudioCodec=aac&AudioStreamIndex=1&VideoBitrate=139680000&AudioBitrate=320000&PlaySessionId=43434807749843d789b2f7b485d48500&api_key=9f0b1aca84b149fd9ff097ababcaf638&TranscodingMaxAudioChannels=2&RequireAvc=false&Tag=12b3a4913c583d42bb9c3ef27f054d05&SegmentContainer=ts&MinSegments=1&BreakOnNonKeyFrames=True&h264-profile=high,main,baseline,constrainedbaseline&h264-level=51

{"Protocol":"File","Id":"f952885549b45611d9bf57dcc5d32afc","Path":"/media/tv/Star Wars - The Clone Wars/Season 1/Star Wars The Clone Wars (2008) - S01E20 - Innocents of Ryloth (1080p BluRay x265 RCVR).mkv","Type":"Default","Container":"mkv,webm","Size":584816320,"Name":"Star Wars The Clone Wars (2008) - S01E20 - Innocents of Ryloth (1080p BluRay x265 RCVR)","IsRemote":false,"ETag":"12b3a4913c583d42bb9c3ef27f054d05","RunTimeTicks":14557840384,"ReadAtNativeFramerate":false,"IgnoreDts":false,"IgnoreIndex":false,"GenPtsInput":false,"SupportsTranscoding":true,"SupportsDirectStream":true,"SupportsDirectPlay":true,"IsInfiniteStream":false,"RequiresOpening":false,"RequiresClosing":false,"RequiresLooping":false,"SupportsProbing":true,"VideoType":"VideoFile","MediaStreams":[{"Codec":"hevc","TimeBase":"1/1000","CodecTimeBase":"1001/24000","VideoRange":"SDR","DisplayTitle":"1080P HEVC","IsInterlaced":false,"BitRate":3213753,"RefFrames":1,"IsDefault":true,"IsForced":false,"Height":808,"Width":1920,"AverageFrameRate":23.9760246,"RealFrameRate":23.9760246,"Profile":"Main 10","Type":"Video","AspectRatio":"2.40:1","Index":0,"IsExternal":false,"IsTextSubtitleStream":false,"SupportsExternalStream":false,"PixelFormat":"yuv420p10le","Level":120},{"Codec":"aac","Language":"eng","TimeBase":"1/1000","CodecTimeBase":"1/48000","DisplayTitle":"Eng AAC 5.1 Default","IsInterlaced":false,"ChannelLayout":"5.1","BitRate":320000,"Channels":6,"SampleRate":48000,"IsDefault":true,"IsForced":false,"Profile":"LC","Type":"Audio","Index":1,"IsExternal":false,"IsTextSubtitleStream":false,"SupportsExternalStream":false,"Level":0},{"Codec":"aac","Language":"fre","TimeBase":"1/1000","CodecTimeBase":"1/48000","DisplayTitle":"Fre AAC 5.1","IsInterlaced":false,"ChannelLayout":"5.1","BitRate":320000,"Channels":6,"SampleRate":48000,"IsDefault":false,"IsForced":false,"Profile":"HE-AAC","Type":"Audio","Index":2,"IsExternal":false,"IsTextSubtitleStream":false,"SupportsExternalStream":false,"Level":0},{"Codec":"aac","Language":"ger","TimeBase":"1/1000","CodecTimeBase":"1/48000","DisplayTitle":"Ger AAC 5.1","IsInterlaced":false,"ChannelLayout":"5.1","BitRate":320000,"Channels":6,"SampleRate":48000,"IsDefault":false,"IsForced":false,"Profile":"HE-AAC","Type":"Audio","Index":3,"IsExternal":false,"IsTextSubtitleStream":false,"SupportsExternalStream":false,"Level":0},{"Codec":"aac","Language":"spa","TimeBase":"1/1000","CodecTimeBase":"1/48000","DisplayTitle":"Spa AAC 5.1","IsInterlaced":false,"ChannelLayout":"5.1","BitRate":320000,"Channels":6,"SampleRate":48000,"IsDefault":false,"IsForced":false,"Profile":"HE-AAC","Type":"Audio","Index":4,"IsExternal":false,"IsTextSubtitleStream":false,"SupportsExternalStream":false,"Level":0},{"Codec":"aac","Language":"spa","TimeBase":"1/1000","CodecTimeBase":"1/48000","DisplayTitle":"Spa AAC 5.1","IsInterlaced":false,"ChannelLayout":"5.1","BitRate":320000,"Channels":6,"SampleRate":48000,"IsDefault":false,"IsForced":false,"Profile":"HE-AAC","Type":"Audio","Index":5,"IsExternal":false,"IsTextSubtitleStream":false,"SupportsExternalStream":false,"Level":0},{"Codec":"DVDSUB","Language":"eng","TimeBase":"1/1000","CodecTimeBase":"0/1","localizedUndefined":"Undefined","localizedDefault":"Default","localizedForced":"Forced","DisplayTitle":"Eng","IsInterlaced":false,"IsDefault":false,"IsForced":false,"Type":"Subtitle","Index":6,"IsExternal":false,"IsTextSubtitleStream":false,"SupportsExternalStream":false,"Level":0},{"Codec":"DVDSUB","Language":"fre","TimeBase":"1/1000","CodecTimeBase":"0/1","localizedUndefined":"Undefined","localizedDefault":"Default","localizedForced":"Forced","DisplayTitle":"Fre","IsInterlaced":false,"IsDefault":false,"IsForced":false,"Type":"Subtitle","Index":7,"IsExternal":false,"IsTextSubtitleStream":false,"SupportsExternalStream":false,"Level":0},{"Codec":"DVDSUB","Language":"ger","TimeBase":"1/1000","CodecTimeBase":"0/1","localizedUndefined":"Undefined","localizedDefault":"Default","localizedForced":"Forced","DisplayTitle":"Ger","IsInterlaced":false,"IsDefault":false,"IsForced":false,"Type":"Subtitle","Index":8,"IsExternal":false,"IsTextSubtitleStream":false,"SupportsExternalStream":false,"Level":0},{"Codec":"DVDSUB","Language":"spa","TimeBase":"1/1000","CodecTimeBase":"0/1","localizedUndefined":"Undefined","localizedDefault":"Default","localizedForced":"Forced","DisplayTitle":"Spa","IsInterlaced":false,"IsDefault":false,"IsForced":false,"Type":"Subtitle","Index":9,"IsExternal":false,"IsTextSubtitleStream":false,"SupportsExternalStream":false,"Level":0},{"Codec":"DVDSUB","Language":"spa","TimeBase":"1/1000","CodecTimeBase":"0/1","localizedUndefined":"Undefined","localizedDefault":"Default","localizedForced":"Forced","DisplayTitle":"Spa","IsInterlaced":false,"IsDefault":false,"IsForced":false,"Type":"Subtitle","Index":10,"IsExternal":false,"IsTextSubtitleStream":false,"SupportsExternalStream":false,"Level":0},{"Codec":"mjpeg","TimeBase":"1/90000","CodecTimeBase":"0/1","IsInterlaced":false,"BitDepth":8,"RefFrames":1,"IsDefault":false,"IsForced":false,"Height":800,"Width":600,"RealFrameRate":90000,"Profile":"Baseline","Type":"EmbeddedImage","AspectRatio":"3:4","Index":11,"IsExternal":false,"IsTextSubtitleStream":false,"SupportsExternalStream":false,"PixelFormat":"yuvj420p","Level":-99}],"Formats":[],"Bitrate":4813753,"RequiredHttpHeaders":{}}

/usr/local/bin/ffmpeg -ss 00:24:15.000 -noaccurate_seek -f matroska,webm -i file:"/media/tv/Star Wars - The Clone Wars/Season 1/Star Wars The Clone Wars (2008) - S01E20 - Innocents of Ryloth (1080p BluRay x265 RCVR).mkv" -map_metadata -1 -map_chapters -1 -threads 0 -map 0:0 -map 0:1 -map -0:s -codec:v:0 libx264 -pix_fmt yuv420p -preset veryfast -crf 23 -maxrate 6427506 -bufsize 12855012 -profile:v high -level 4.1 -x264opts:0 subme=0:me_range=4:rc_lookahead=10:me=dia:no_chroma_me:8x8dct=0:partitions=none -force_key_frames:0 "expr:gte(t,1455+n_forced*3)" -vf "scale=trunc(min(max(iw\,ih*dar)\,1920)/2)*2:trunc(ow/dar/2)*2" -copyts -vsync -1 -codec:a:0 copy -f hls -max_delay 5000000 -avoid_negative_ts disabled -start_at_zero -hls_time 3 -individual_header_trailer 0 -hls_segment_type mpegts -start_number 485 -hls_segment_filename "/config/transcoding-temp/cf9f95899d214caea56ccbeb21a98903%d.ts" -hls_playlist_type vod -hls_list_size 0 -y "/config/transcoding-temp/cf9f95899d214caea56ccbeb21a98903.m3u8"


ffmpeg version 4.2.1 Copyright (c) 2000-2019 the FFmpeg developers
  built with gcc 7 (Ubuntu 7.4.0-1ubuntu1~18.04.1)
  configuration: --disable-debug --disable-doc --disable-ffplay --enable-vaapi --enable-shared --enable-avresample --enable-libopencore-amrnb --enable-libopencore-amrwb --enable-gnutls --enable-gpl --enable-libass --enable-libfreetype --enable-libvidstab --enable-libmp3lame --enable-libopenjpeg --enable-libopus --enable-libtheora --enable-libvorbis --enable-libvpx --enable-libx265 --enable-libxvid --enable-libx264 --enable-libkvazaar --enable-libaom --extra-libs=-lpthread --enable-postproc --enable-cuvid --enable-nvenc --enable-version3 --enable-rpath --extra-cflags=-I/opt/ffmpeg/include --extra-ldflags=-L/opt/ffmpeg/lib --extra-libs=-ldl --prefix=/opt/ffmpeg
  libavutil      56. 31.100 / 56. 31.100
  libavcodec     58. 54.100 / 58. 54.100
  libavformat    58. 29.100 / 58. 29.100
  libavdevice    58.  8.100 / 58.  8.100
  libavfilter     7. 57.100 /  7. 57.100
  libavresample   4.  0.  0 /  4.  0.  0
  libswscale      5.  5.100 /  5.  5.100
  libswresample   3.  5.100 /  3.  5.100
  libpostproc    55.  5.100 / 55.  5.100
Input #0, matroska,webm, from 'file:/media/tv/Star Wars - The Clone Wars/Season 1/Star Wars The Clone Wars (2008) - S01E20 - Innocents of Ryloth (1080p BluRay x265 RCVR).mkv':
  Metadata:
    encoder         : libebml v1.3.4 + libmatroska v1.4.5
    creation_time   : 2018-08-02T01:33:43.000000Z
  Duration: 00:24:15.78, start: 0.000000, bitrate: 3213 kb/s
    Chapter #0:0: start 0.000000, end 587.336750
    Metadata:
      title           : Chapter 01
    Chapter #0:1: start 587.336750, end 966.340375
    Metadata:
      title           : Chapter 02
    Chapter #0:2: start 966.340375, end 1390.889500
    Metadata:
      title           : Chapter 03
    Chapter #0:3: start 1390.889500, end 1455.680000
    Metadata:
      title           : Chapter 04
    Stream #0:0: Video: hevc (Main 10), yuv420p10le(tv), 1920x808, SAR 1:1 DAR 240:101, 23.98 fps, 23.98 tbr, 1k tbn, 23.98 tbc (default)
    Metadata:
      BPS             : 1947548
      BPS-eng         : 1947548
      DURATION        : 00:24:14.704000000
      DURATION-eng    : 00:24:14.704000000
      NUMBER_OF_FRAMES: 34878
      NUMBER_OF_FRAMES-eng: 34878
      NUMBER_OF_BYTES : 354138261
      NUMBER_OF_BYTES-eng: 354138261
      _STATISTICS_WRITING_APP: mkvmerge v12.0.0 ('Trust / Lust') 64bit
      _STATISTICS_WRITING_APP-eng: mkvmerge v12.0.0 ('Trust / Lust') 64bit
      _STATISTICS_WRITING_DATE_UTC: 2018-08-02 01:33:43
      _STATISTICS_WRITING_DATE_UTC-eng: 2018-08-02 01:33:43
      _STATISTICS_TAGS: BPS DURATION NUMBER_OF_FRAMES NUMBER_OF_BYTES
      _STATISTICS_TAGS-eng: BPS DURATION NUMBER_OF_FRAMES NUMBER_OF_BYTES
    Stream #0:1(eng): Audio: aac (LC), 48000 Hz, 5.1, fltp (default)
    Metadata:
      BPS             : 467427
      BPS-eng         : 467427
      DURATION        : 00:24:15.701000000
      DURATION-eng    : 00:24:15.701000000
      NUMBER_OF_FRAMES: 68236
      NUMBER_OF_FRAMES-eng: 68236
      NUMBER_OF_BYTES : 85054369
      NUMBER_OF_BYTES-eng: 85054369
      _STATISTICS_WRITING_APP: mkvmerge v12.0.0 ('Trust / Lust') 64bit
      _STATISTICS_WRITING_APP-eng: mkvmerge v12.0.0 ('Trust / Lust') 64bit
      _STATISTICS_WRITING_DATE_UTC: 2018-08-02 01:33:43
      _STATISTICS_WRITING_DATE_UTC-eng: 2018-08-02 01:33:43
      _STATISTICS_TAGS: BPS DURATION NUMBER_OF_FRAMES NUMBER_OF_BYTES
      _STATISTICS_TAGS-eng: BPS DURATION NUMBER_OF_FRAMES NUMBER_OF_BYTES
    Stream #0:2(fre): Audio: aac (HE-AAC), 48000 Hz, 5.1, fltp
    Metadata:
      BPS             : 191999
      BPS-eng         : 191999
      DURATION        : 00:24:15.744000000
      DURATION-eng    : 00:24:15.744000000
      NUMBER_OF_FRAMES: 34119
      NUMBER_OF_FRAMES-eng: 34119
      NUMBER_OF_BYTES : 34937714
      NUMBER_OF_BYTES-eng: 34937714
      _STATISTICS_WRITING_APP: mkvmerge v12.0.0 ('Trust / Lust') 64bit
      _STATISTICS_WRITING_APP-eng: mkvmerge v12.0.0 ('Trust / Lust') 64bit
      _STATISTICS_WRITING_DATE_UTC: 2018-08-02 01:33:43
      _STATISTICS_WRITING_DATE_UTC-eng: 2018-08-02 01:33:43
      _STATISTICS_TAGS: BPS DURATION NUMBER_OF_FRAMES NUMBER_OF_BYTES
      _STATISTICS_TAGS-eng: BPS DURATION NUMBER_OF_FRAMES NUMBER_OF_BYTES
    Stream #0:3(ger): Audio: aac (HE-AAC), 48000 Hz, 5.1, fltp
    Metadata:
      BPS             : 191996
      BPS-eng         : 191996
      DURATION        : 00:24:15.744000000
      DURATION-eng    : 00:24:15.744000000
      NUMBER_OF_FRAMES: 34119
      NUMBER_OF_FRAMES-eng: 34119
      NUMBER_OF_BYTES : 34937239
      NUMBER_OF_BYTES-eng: 34937239
      _STATISTICS_WRITING_APP: mkvmerge v12.0.0 ('Trust / Lust') 64bit
      _STATISTICS_WRITING_APP-eng: mkvmerge v12.0.0 ('Trust / Lust') 64bit
      _STATISTICS_WRITING_DATE_UTC: 2018-08-02 01:33:43
      _STATISTICS_WRITING_DATE_UTC-eng: 2018-08-02 01:33:43
      _STATISTICS_TAGS: BPS DURATION NUMBER_OF_FRAMES NUMBER_OF_BYTES
      _STATISTICS_TAGS-eng: BPS DURATION NUMBER_OF_FRAMES NUMBER_OF_BYTES
    Stream #0:4(spa): Audio: aac (HE-AAC), 48000 Hz, 5.1, fltp
    Metadata:
      BPS             : 191999
      BPS-eng         : 191999
      DURATION        : 00:24:15.744000000
      DURATION-eng    : 00:24:15.744000000
      NUMBER_OF_FRAMES: 34119
      NUMBER_OF_FRAMES-eng: 34119
      NUMBER_OF_BYTES : 34937750
      NUMBER_OF_BYTES-eng: 34937750
      _STATISTICS_WRITING_APP: mkvmerge v12.0.0 ('Trust / Lust') 64bit
      _STATISTICS_WRITING_APP-eng: mkvmerge v12.0.0 ('Trust / Lust') 64bit
      _STATISTICS_WRITING_DATE_UTC: 2018-08-02 01:33:43
      _STATISTICS_WRITING_DATE_UTC-eng: 2018-08-02 01:33:43
      _STATISTICS_TAGS: BPS DURATION NUMBER_OF_FRAMES NUMBER_OF_BYTES
      _STATISTICS_TAGS-eng: BPS DURATION NUMBER_OF_FRAMES NUMBER_OF_BYTES
    Stream #0:5(spa): Audio: aac (HE-AAC), 48000 Hz, 5.1, fltp
    Metadata:
      BPS             : 191998
      BPS-eng         : 191998
      DURATION        : 00:24:15.744000000
      DURATION-eng    : 00:24:15.744000000
      NUMBER_OF_FRAMES: 34119
      NUMBER_OF_FRAMES-eng: 34119
      NUMBER_OF_BYTES : 34937620
      NUMBER_OF_BYTES-eng: 34937620
      _STATISTICS_WRITING_APP: mkvmerge v12.0.0 ('Trust / Lust') 64bit
      _STATISTICS_WRITING_APP-eng: mkvmerge v12.0.0 ('Trust / Lust') 64bit
      _STATISTICS_WRITING_DATE_UTC: 2018-08-02 01:33:43
      _STATISTICS_WRITING_DATE_UTC-eng: 2018-08-02 01:33:43
      _STATISTICS_TAGS: BPS DURATION NUMBER_OF_FRAMES NUMBER_OF_BYTES
      _STATISTICS_TAGS-eng: BPS DURATION NUMBER_OF_FRAMES NUMBER_OF_BYTES
    Stream #0:6(eng): Subtitle: dvd_subtitle, 1920x1080
    Metadata:
      BPS             : 5945
      BPS-eng         : 5945
      DURATION        : 00:23:53.713000000
      DURATION-eng    : 00:23:53.713000000
      NUMBER_OF_FRAMES: 261
      NUMBER_OF_FRAMES-eng: 261
      NUMBER_OF_BYTES : 1065555
      NUMBER_OF_BYTES-eng: 1065555
      _STATISTICS_WRITING_APP: mkvmerge v12.0.0 ('Trust / Lust') 64bit
      _STATISTICS_WRITING_APP-eng: mkvmerge v12.0.0 ('Trust / Lust') 64bit
      _STATISTICS_WRITING_DATE_UTC: 2018-08-02 01:33:43
      _STATISTICS_WRITING_DATE_UTC-eng: 2018-08-02 01:33:43
      _STATISTICS_TAGS: BPS DURATION NUMBER_OF_FRAMES NUMBER_OF_BYTES
      _STATISTICS_TAGS-eng: BPS DURATION NUMBER_OF_FRAMES NUMBER_OF_BYTES
    Stream #0:7(fre): Subtitle: dvd_subtitle, 1920x1080
    Metadata:
      BPS             : 5189
      BPS-eng         : 5189
      DURATION        : 00:24:00.220000000
      DURATION-eng    : 00:24:00.220000000
      NUMBER_OF_FRAMES: 186
      NUMBER_OF_FRAMES-eng: 186
      NUMBER_OF_BYTES : 934178
      NUMBER_OF_BYTES-eng: 934178
      _STATISTICS_WRITING_APP: mkvmerge v12.0.0 ('Trust / Lust') 64bit
      _STATISTICS_WRITING_APP-eng: mkvmerge v12.0.0 ('Trust / Lust') 64bit
      _STATISTICS_WRITING_DATE_UTC: 2018-08-02 01:33:43
      _STATISTICS_WRITING_DATE_UTC-eng: 2018-08-02 01:33:43
      _STATISTICS_TAGS: BPS DURATION NUMBER_OF_FRAMES NUMBER_OF_BYTES
      _STATISTICS_TAGS-eng: BPS DURATION NUMBER_OF_FRAMES NUMBER_OF_BYTES
    Stream #0:8(ger): Subtitle: dvd_subtitle, 1920x1080
    Metadata:
      BPS             : 6522
      BPS-eng         : 6522
      DURATION        : 00:24:00.220000000
      DURATION-eng    : 00:24:00.220000000
      NUMBER_OF_FRAMES: 262
      NUMBER_OF_FRAMES-eng: 262
      NUMBER_OF_BYTES : 1174198
      NUMBER_OF_BYTES-eng: 1174198
      _STATISTICS_WRITING_APP: mkvmerge v12.0.0 ('Trust / Lust') 64bit
      _STATISTICS_WRITING_APP-eng: mkvmerge v12.0.0 ('Trust / Lust') 64bit
      _STATISTICS_WRITING_DATE_UTC: 2018-08-02 01:33:43
      _STATISTICS_WRITING_DATE_UTC-eng: 2018-08-02 01:33:43
      _STATISTICS_TAGS: BPS DURATION NUMBER_OF_FRAMES NUMBER_OF_BYTES
      _STATISTICS_TAGS-eng: BPS DURATION NUMBER_OF_FRAMES NUMBER_OF_BYTES
    Stream #0:9(spa): Subtitle: dvd_subtitle, 1920x1080
    Metadata:
      BPS             : 4814
      BPS-eng         : 4814
      DURATION        : 00:24:00.220000000
      DURATION-eng    : 00:24:00.220000000
      NUMBER_OF_FRAMES: 186
      NUMBER_OF_FRAMES-eng: 186
      NUMBER_OF_BYTES : 866696
      NUMBER_OF_BYTES-eng: 866696
      _STATISTICS_WRITING_APP: mkvmerge v12.0.0 ('Trust / Lust') 64bit
      _STATISTICS_WRITING_APP-eng: mkvmerge v12.0.0 ('Trust / Lust') 64bit
      _STATISTICS_WRITING_DATE_UTC: 2018-08-02 01:33:43
      _STATISTICS_WRITING_DATE_UTC-eng: 2018-08-02 01:33:43
      _STATISTICS_TAGS: BPS DURATION NUMBER_OF_FRAMES NUMBER_OF_BYTES
      _STATISTICS_TAGS-eng: BPS DURATION NUMBER_OF_FRAMES NUMBER_OF_BYTES
    Stream #0:10(spa): Subtitle: dvd_subtitle, 1920x1080
    Metadata:
      BPS             : 4810
      BPS-eng         : 4810
      DURATION        : 00:24:09.938000000
      DURATION-eng    : 00:24:09.938000000
      NUMBER_OF_FRAMES: 187
      NUMBER_OF_FRAMES-eng: 187
      NUMBER_OF_BYTES : 871884
      NUMBER_OF_BYTES-eng: 871884
      _STATISTICS_WRITING_APP: mkvmerge v12.0.0 ('Trust / Lust') 64bit
      _STATISTICS_WRITING_APP-eng: mkvmerge v12.0.0 ('Trust / Lust') 64bit
      _STATISTICS_WRITING_DATE_UTC: 2018-08-02 01:33:43
      _STATISTICS_WRITING_DATE_UTC-eng: 2018-08-02 01:33:43
      _STATISTICS_TAGS: BPS DURATION NUMBER_OF_FRAMES NUMBER_OF_BYTES
      _STATISTICS_TAGS-eng: BPS DURATION NUMBER_OF_FRAMES NUMBER_OF_BYTES
    Stream #0:11: Video: mjpeg (Baseline), yuvj420p(pc, bt470bg/unknown/unknown), 600x800 [SAR 96:96 DAR 3:4], 90k tbr, 90k tbn, 90k tbc (attached pic)
    Metadata:
      filename        : cover.jpg
      mimetype        : image/jpeg
Stream mapping:
  Stream #0:0 -> #0:0 (hevc (native) -> h264 (libx264))
  Stream #0:1 -> #0:1 (copy)
Press [q] to stop, [?] for help
[libx264 @ 0x55d091bc5380] using SAR=1/1
[libx264 @ 0x55d091bc5380] using cpu capabilities: MMX2 SSE2Fast SSSE3 SSE4.2 AVX FMA3 BMI2 AVX2
[libx264 @ 0x55d091bc5380] profile Main, level 4.1
[libx264 @ 0x55d091bc5380] 264 - core 155 - H.264/MPEG-4 AVC codec - Copyleft 2003-2018 - http://www.videolan.org/x264.html - options: cabac=1 ref=1 deblock=1:0:0 analyse=0x1:0 me=dia subme=0 psy=1 psy_rd=1.00:0.00 mixed_ref=0 me_range=4 chroma_me=0 trellis=0 8x8dct=0 cqm=0 deadzone=21,11 fast_pskip=1 chroma_qp_offset=0 threads=6 lookahead_threads=1 sliced_threads=0 nr=0 decimate=1 interlaced=0 bluray_compat=0 constrained_intra=0 bframes=3 b_pyramid=2 b_adapt=1 b_bias=0 direct=1 weightb=1 open_gop=0 weightp=1 keyint=250 keyint_min=23 scenecut=40 intra_refresh=0 rc_lookahead=10 rc=crf mbtree=1 crf=23.0 qcomp=0.60 qpmin=0 qpmax=69 qpstep=4 vbv_maxrate=6427 vbv_bufsize=12855 crf_max=0.0 nal_hrd=none filler=0 ip_ratio=1.40 aq=1:1.00
[hls @ 0x55d091bc2040] Opening '/config/transcoding-temp/cf9f95899d214caea56ccbeb21a98903485.ts' for writing
Output #0, hls, to '/config/transcoding-temp/cf9f95899d214caea56ccbeb21a98903.m3u8':
  Metadata:
    encoder         : Lavf58.29.100
    Stream #0:0: Video: h264 (libx264), yuv420p, 1920x808 [SAR 1:1 DAR 240:101], q=-1--1, 23.98 fps, 90k tbn, 23.98 tbc (default)
    Metadata:
      encoder         : Lavc58.54.100 libx264
    Side data:
      cpb: bitrate max/min/avg: 6427000/0/0 buffer size: 12855000 vbv_delay: -1
    Stream #0:1: Audio: aac (LC), 48000 Hz, 5.1, fltp (default)
frame=   52 fps=0.0 q=28.0 size=N/A time=00:24:10.10 bitrate=N/A speed=2.88e+03x    
frame=  112 fps=111 q=28.0 size=N/A time=00:24:12.49 bitrate=N/A speed=1.43e+03x    
frame=  171 fps=115 q=-1.0 Lsize=N/A time=00:24:15.69 bitrate=N/A speed= 983x    
video:459kB audio:23kB subtitle:0kB other streams:0kB global headers:0kB muxing overhead: unknown
[libx264 @ 0x55d091bc5380] frame I:1     Avg QP:10.83  size:  5347
[libx264 @ 0x55d091bc5380] frame P:62    Avg QP:15.98  size:  6192
[libx264 @ 0x55d091bc5380] frame B:108   Avg QP:19.13  size:   737
[libx264 @ 0x55d091bc5380] consecutive B-frames: 11.1% 10.5% 10.5% 67.8%
[libx264 @ 0x55d091bc5380] mb I  I16..4: 94.1%  0.0%  5.9%
[libx264 @ 0x55d091bc5380] mb P  I16..4: 12.3%  0.0%  0.0%  P16..4:  6.8%  0.0%  0.0%  0.0%  0.0%    skip:80.9%
[libx264 @ 0x55d091bc5380] mb B  I16..4:  1.2%  0.0%  0.0%  B16..8:  1.4%  0.0%  0.0%  direct: 1.0%  skip:96.4%  L0:34.8% L1:47.9% BI:17.2%
[libx264 @ 0x55d091bc5380] coded y,uvDC,uvAC intra: 8.8% 8.5% 4.8% inter: 1.9% 2.5% 0.5%
[libx264 @ 0x55d091bc5380] i16 v,h,dc,p: 89%  6%  3%  2%
[libx264 @ 0x55d091bc5380] i4 v,h,dc,ddl,ddr,vr,hd,vl,hu: 37% 15% 23%  5%  4%  5%  3%  6%  2%
[libx264 @ 0x55d091bc5380] i8c dc,h,v,p: 88%  4%  7%  1%
[libx264 @ 0x55d091bc5380] Weighted P-Frames: Y:41.9% UV:30.6%
[libx264 @ 0x55d091bc5380] kb/s:525.93